<svg xmlns="http://www.w3.org/2000/svg" xmlns:xlink="http://www.w3.org/1999/xlink" fill="none" version="1.1" width="20" height="20" viewBox="0 0 20 20"><defs><clipPath id="master_svg0_707_045899/664_77665"><rect x="0" y="0" width="20" height="20" rx="0"/></clipPath></defs><g clip-path="url(#master_svg0_707_045899/664_77665)"><g></g><g><path d="M6.334223553860474,16.070532999999998Q8.320787653860474,16.680304,10.115089653860474,16.344146000000002Q10.168421953860474,16.334153999999998,10.219235653860474,16.315120999999998Q10.270047453860474,16.296087,10.316820353860473,16.268583Q10.363592353860474,16.241077,10.404924653860474,16.205922Q10.446257853860473,16.170766999999998,10.480913353860474,16.129016Q10.515568953860473,16.087265000000002,10.542512153860473,16.040165000000002Q10.569453453860474,15.993067,10.587876553860474,15.942029Q10.606298653860474,15.890991,10.615649453860474,15.837542Q10.625000253860474,15.784094,10.625000253860474,15.729834Q10.624999253860473,15.668276,10.612990653860473,15.607902Q10.600980953860473,15.547527,10.577424253860473,15.490655Q10.553866653860474,15.433784,10.519667853860474,15.382601Q10.485469053860474,15.331417,10.441941453860474,15.28789Q10.398413853860474,15.244363,10.347231153860474,15.210164Q10.296048353860474,15.175964,10.239176953860474,15.152408Q10.182305553860473,15.128851,10.121931353860473,15.116843Q10.061557053860474,15.104834,10.000000253860474,15.104834Q9.941959153860473,15.104834,9.884910353860473,15.115521Q8.305104453860473,15.411494,6.499284053860474,14.81105Q6.3903362538604735,14.774824,6.275627853860474,14.779684Q6.160918953860474,14.784544,6.055427053860473,14.829856L4.141721953860474,15.651817L4.453590853860474,13.775564Q4.477241753860474,13.633274,4.436145753860474,13.495011Q4.395049853860474,13.35675,4.297519453860474,13.250481Q2.708333373860474,11.5188971,2.7083332538604736,9.166667499999999Q2.7083332538604736,6.6641121,4.477889753860474,4.894556Q6.247445853860474,3.12500012,8.750000753860473,3.125Q11.223118053860473,3.125,12.986124253860474,4.8588827000000006Q14.747034253860473,6.590704,14.790681253860473,9.0573907Q14.791759253860473,9.118241300000001,14.804554253860474,9.177740100000001Q14.817349253860474,9.2372394,14.841384253860474,9.2931519Q14.865418253860474,9.3490648,14.899787253860474,9.3992906Q14.934155253860474,9.449516299999999,14.977569253860473,9.4921675Q15.020982253860474,9.534819599999999,15.071809253860474,9.5682945Q15.122634253860474,9.6017699,15.178963253860474,9.624810700000001Q15.235293253860474,9.6478519,15.295009253860474,9.6595926Q15.354726253860473,9.6713333,15.415584253860473,9.6713333Q15.477139253860473,9.6713333,15.537514253860474,9.6593237Q15.597888253860473,9.6473141,15.654759253860474,9.623757399999999Q15.711631253860473,9.6002007,15.762815253860474,9.566000899999999Q15.813996253860473,9.5318022,15.857524253860474,9.4882746Q15.901052253860474,9.444747,15.935250253860474,9.3935642Q15.969449253860473,9.342381,15.993007253860474,9.285509600000001Q16.016563253860475,9.2286386,16.028573253860472,9.1682644Q16.040583253860476,9.107890099999999,16.040584253860473,9.0463333L16.040483253860472,9.0350714L16.040435253860473,9.0324607Q15.986794253860474,6.056757,13.862617253860474,3.967669Q11.734797753860473,1.875,8.750000753860473,1.875Q5.729679153860474,1.8749998799999998,3.5940062538604733,4.0106727Q1.4583332538604736,6.1463459,1.4583332538604736,9.166667499999999Q1.4583335538604736,11.8497086,3.1717497538604738,13.863946L2.721138243860474,16.574894Q2.691091593860474,16.75566,2.7634094938604736,16.924031Q2.7877030338604736,16.980591,2.8225641838604734,17.031325000000002Q2.8574253338604736,17.082059,2.9015144138604736,17.125017Q2.9456034938604736,17.167976,2.9972262338604736,17.201508Q3.0488489838604735,17.235041000000002,3.1060215538604736,17.257857Q3.163193953860474,17.280673,3.2237192538604735,17.291897Q3.284244453860474,17.303122000000002,3.3457963538604734,17.302322Q3.4073483538604736,17.301523,3.4675617538604735,17.288731Q3.5277749538604737,17.275938,3.5843355538604733,17.251646L6.334223553860474,16.070532999999998Z" fill-rule="evenodd" fill="#4150FF" fill-opacity="1"/></g><g><path d="M7.239583492279053,7.583333487629394Q7.2395833922790525,7.676354507629394,7.221569492279053,7.767588107629394Q7.203555592279053,7.858821707629394,7.168220292279052,7.944762007629395Q7.1328849922790525,8.030702107629395,7.081585992279052,8.108046407629395Q7.030286992279053,8.185390507629394,6.964995992279053,8.251166307629395Q6.899704692279053,8.316942207629396,6.822930292279053,8.368621807629395Q6.746156092279053,8.420301507629395,6.660849092279053,8.455899107629394Q6.575541992279053,8.491496807629394,6.484980592279053,8.509644307629394Q6.394419192279052,8.527791907629394,6.302083492279053,8.527792007629394Q6.209747792279053,8.527791907629394,6.119186282279053,8.509644307629394Q6.028624772279053,8.491496707629395,5.943317712279053,8.455899007629395Q5.858010652279052,8.420301407629395,5.781236352279053,8.368621807629395Q5.704462052279053,8.316942207629396,5.639170852279053,8.251166307629395Q5.573879662279053,8.185390507629394,5.522580702279052,8.108046407629395Q5.471281752279053,8.030702107629395,5.435946420279053,7.944762007629395Q5.400611084279053,7.858821707629394,5.382597288279053,7.767588107629394Q5.364583492279053,7.676354507629394,5.364583492279053,7.583333487629394Q5.364583492279053,7.490312457629394,5.382597288279053,7.399078727629394Q5.400611084279053,7.307845057629395,5.435946420279053,7.221904817629395Q5.471281752279053,7.135964567629395,5.522580712279053,7.058620397629395Q5.573879662279053,6.981276277629394,5.639170852279053,6.915500457629395Q5.704462052279053,6.849724647629395,5.781236352279053,6.798044917629395Q5.858010652279052,6.7463652176293945,5.943317712279053,6.710767611629395Q6.028624772279053,6.6751700076293945,6.119186282279053,6.657022507629395Q6.209747792279053,6.6388750076293945,6.302083492279053,6.6388750076293945Q6.394419192279052,6.6388750076293945,6.484980592279053,6.657022507629395Q6.575541992279053,6.6751700076293945,6.660848992279053,6.710767611629395Q6.746155992279053,6.7463652176293945,6.822930292279053,6.798044917629395Q6.899704692279053,6.849724647629395,6.9649958922790525,6.915500457629395Q7.030286992279053,6.981276277629394,7.081585992279052,7.0586204276293945Q7.1328849922790525,7.135964567629395,7.168220292279052,7.221904817629395Q7.203555592279053,7.307845057629395,7.221569492279053,7.399078727629394Q7.2395833922790525,7.490312457629394,7.239583492279053,7.583333487629394Z" fill="#4150FF" fill-opacity="1"/></g><g><path d="M10.989583015441895,7.583333487629394Q10.989582915441895,7.676354507629394,10.971569015441894,7.767588107629394Q10.953555115441894,7.858821707629394,10.918219815441894,7.944762007629395Q10.882884515441894,8.030702107629395,10.831585515441894,8.108046407629395Q10.780286515441894,8.185390507629394,10.714995515441895,8.251166307629395Q10.649704215441895,8.316942207629396,10.572929815441894,8.368621807629395Q10.496155615441895,8.420301507629395,10.410848615441894,8.455899107629394Q10.325541515441895,8.491496807629394,10.234980115441894,8.509644307629394Q10.144418715441894,8.527791907629394,10.052083015441895,8.527792007629394Q9.959747315441895,8.527791907629394,9.869185805441894,8.509644307629394Q9.778624295441894,8.491496707629395,9.693317235441894,8.455899007629395Q9.608010175441894,8.420301407629395,9.531235875441894,8.368621807629395Q9.454461575441895,8.316942207629396,9.389170375441894,8.251166307629395Q9.323879185441895,8.185390507629394,9.272580225441894,8.108046407629395Q9.221281275441894,8.030702107629395,9.185945943441894,7.944762007629395Q9.150610607441894,7.858821707629394,9.132596811441895,7.767588107629394Q9.114583015441895,7.676354507629394,9.114583015441895,7.583333487629394Q9.114583015441895,7.490312457629394,9.132596811441895,7.399078727629394Q9.150610607441894,7.307845057629395,9.185945943441894,7.221904817629395Q9.221281275441894,7.135964567629395,9.272580235441895,7.058620397629395Q9.323879185441895,6.981276277629394,9.389170375441894,6.915500457629395Q9.454461575441895,6.849724647629395,9.531235875441894,6.798044917629395Q9.608010175441894,6.7463652176293945,9.693317235441894,6.710767611629395Q9.778624295441894,6.6751700076293945,9.869185805441894,6.657022507629395Q9.959747315441895,6.6388750076293945,10.052083015441895,6.6388750076293945Q10.144418715441894,6.6388750076293945,10.234980115441894,6.657022507629395Q10.325541515441895,6.6751700076293945,10.410848515441895,6.710767611629395Q10.496155515441895,6.7463652176293945,10.572929815441894,6.798044917629395Q10.649704215441895,6.849724647629395,10.714995415441894,6.915500457629395Q10.780286515441894,6.981276277629394,10.831585515441894,7.0586204276293945Q10.882884515441894,7.135964567629395,10.918219815441894,7.221904817629395Q10.953555115441894,7.307845057629395,10.971569015441894,7.399078727629394Q10.989582915441895,7.490312457629394,10.989583015441895,7.583333487629394Z" fill="#4150FF" fill-opacity="1"/></g><g></g><g><path d="M16.936049484558104,14.7213511L16.935706584558105,14.7220788Q16.875999484558108,14.8486867,16.875999484558108,14.9886665Q16.875999484558108,15.0502234,16.888008084558106,15.1105981Q16.900017284558103,15.1709719,16.923573984558104,15.227842800000001Q16.947131184558106,15.2847142,16.981330384558106,15.335897Q17.015529584558106,15.3870802,17.059057284558104,15.4306078Q17.102584884558105,15.4741354,17.153767584558103,15.508334600000001Q17.204950284558105,15.542533899999999,17.261821784558105,15.566090599999999Q17.318694084558103,15.5896478,17.379068384558103,15.6016574Q17.439442684558106,15.6136665,17.500999484558108,15.6136665Q17.589882884558108,15.613665600000001,17.675242384558103,15.5888858Q17.760601984558107,15.564105999999999,17.835668584558107,15.516511900000001Q17.910735084558105,15.4689169,17.969557784558106,15.4022818Q18.028379484558105,15.3356457,18.066292784558108,15.2552543Q18.541665984558108,14.2472363,18.541665984558108,13.125Q18.541665984558108,11.0539281,17.077202284558105,9.58946437Q15.612738584558105,8.12499988,13.541667984558106,8.125Q11.470595884558104,8.125,10.006131294558106,9.58946437Q8.541666984558105,11.053928899999999,8.541666984558105,13.125Q8.541666984558105,15.196071100000001,10.006131354558105,16.6605353Q11.470595884558104,18.125,13.541666984558105,18.125Q15.197343784558106,18.125,16.522397984558104,17.1397057L16.523204784558104,17.1391058Q16.581965484558104,17.0955,16.629065484558105,17.0395002Q16.676164584558105,16.9835014,16.709054984558104,16.9181366Q16.741944784558108,16.8527718,16.758846784558106,16.7815762Q16.775749184558105,16.710382,16.775749184558105,16.6372089Q16.775748684558106,16.5756512,16.763739584558106,16.5152769Q16.751729984558104,16.4549026,16.728173284558103,16.3980312Q16.704616584558106,16.3411598,16.670417284558106,16.2899771Q16.636217584558104,16.2387938,16.592690484558105,16.1952667Q16.549162884558108,16.1517391,16.497979684558103,16.1175404Q16.446796884558104,16.0833406,16.389925484558105,16.0597835Q16.333054084558107,16.0362272,16.272680284558106,16.0242181Q16.212305984558107,16.0122089,16.150749184558105,16.0122089Q15.943730784558106,16.0122089,15.777646584558106,16.1357913Q14.784214484558106,16.875,13.541666984558105,16.875Q11.988362584558105,16.875,10.890014984558105,15.7766523Q9.791666984558105,14.6783047,9.791666984558105,13.125Q9.791666804558105,11.571696,10.890014884558106,10.473348Q11.988362984558105,9.375,13.541667984558106,9.375Q15.094971684558105,9.37500012,16.193318384558104,10.473347799999999Q17.291665984558108,11.5716958,17.291665984558108,13.125Q17.291665984558108,13.9666824,16.936206384558105,14.7210183L16.936049484558104,14.7213511Z" fill-rule="evenodd" fill="#4150FF" fill-opacity="1"/></g><g></g><g><path d="M18.11766150654297,14.886916954423828L18.53327680654297,17.397940834423828Q18.565884806542968,17.59494833442383,18.478224706542967,17.774366334423828Q18.45120190654297,17.82967473442383,18.41390820654297,17.878648734423827Q18.37661460654297,17.92762283442383,18.33048300654297,17.96838043442383Q18.28435130654297,18.00913783442383,18.23115490654297,18.040112534423827Q18.17795870654297,18.071086834423827,18.119741706542968,18.09108833442383Q18.06152450654297,18.11108923442383,18.00052390654297,18.11934853442383Q17.93952350654297,18.127607834423827,17.87808370654297,18.12380793442383Q17.816643906542968,18.12000803442383,17.75712630654297,18.104294734423828Q17.69760850654297,18.088581534423827,17.64229990654297,18.06155893442383L15.87643429654297,17.19879273442383L15.876383036542968,17.198767634423827Q15.797510056542968,17.160232034423828,15.732304336542969,17.10145993442383Q15.667098616542969,17.042687934423828,15.620605886542968,16.96822723442383Q15.574113186542968,16.893766634423827,15.549931166542969,16.80937953442383Q15.525749206542969,16.724992534423826,15.525749206542969,16.63720893442383Q15.525749206542969,16.575651634423828,15.537758406542968,16.51527743442383Q15.549767616542969,16.454903134423827,15.573324496542968,16.398031734423828Q15.596881386542968,16.34116033442383,15.631080686542969,16.28997743442383Q15.665280016542969,16.23879453442383,15.708807466542968,16.19526703442383Q15.752334956542969,16.151739634423826,15.80351781654297,16.11754033442383Q15.854700716542968,16.083341034423828,15.911572066542968,16.05978413442383Q15.96844343654297,16.036227234423826,16.028817756542967,16.02421803442383Q16.08919208154297,16.01220893442383,16.15074920654297,16.01220893442383Q16.29526705654297,16.01220893442383,16.42511546654297,16.07565023442383L16.42558300654297,16.075878934423827L17.10216098654297,16.40644113442383L16.88443994654297,15.091035184423829L16.88438868654297,15.090725664423829Q16.87599944654297,15.040040895423829,16.87599944654297,14.988666534423828Q16.87599944654297,14.927109409423828,16.88800865654297,14.866735084423828Q16.90001785654297,14.806360764423829,16.92357468654297,14.749489394423827Q16.94713157654297,14.692618044423828,16.98133087654297,14.641435144423829Q17.015530226542968,14.590252284423828,17.05905771654297,14.546724794423827Q17.10258513654297,14.503197344423828,17.15376810654297,14.468998074423828Q17.204950806542968,14.434798714423827,17.26182220654297,14.411241884423829Q17.31869360654297,14.387684944423828,17.379067906542968,14.375675794423827Q17.43944230654297,14.363666534423828,17.50099940654297,14.363666534423828Q17.55609340654297,14.363666534423828,17.610337706542968,14.373304664423829Q17.664582006542968,14.382942794423828,17.71630360654297,14.401921984423828Q17.768025406542968,14.420901064423829,17.81562920654297,14.448635694423828Q17.86323300654297,14.476370334423828,17.90525070654297,14.512005244423829Q17.94726860654297,14.547640024423828,17.98240450654297,14.590075974423828Q18.017540206542968,14.632511914423828,18.044710306542967,14.680440154423827Q18.07188070654297,14.728368374423829,18.090247406542968,14.780310694423829Q18.108614006542968,14.832253004423828,18.117610306542968,14.886607394423828L18.11766150654297,14.886916954423828Z" fill-rule="evenodd" fill="#4150FF" fill-opacity="1"/></g><g><path d="M15.572916984558105,12.124958512888183Q15.572916984558105,12.194723252888183,15.559406684558105,12.263147472888184Q15.545896184558105,12.331571702888183,15.519394684558105,12.396025892888183Q15.492892984558106,12.460480222888183,15.454418884558105,12.518487422888184Q15.415944584558105,12.576494722888183,15.366976284558106,12.625825922888183Q15.318007784558105,12.675157022888184,15.260427084558106,12.713916222888184Q15.202846284558106,12.752675322888184,15.138866124558106,12.779373122888183Q15.074885844558105,12.806071022888183,15.006964804558105,12.819681422888184Q14.939043704558106,12.833292022888184,14.869791984558105,12.833292022888184Q14.800540204558105,12.833292022888184,14.732619044558106,12.819681522888184Q14.664697944558105,12.806071022888183,14.600717634558105,12.779373322888183Q14.536737354558106,12.752675422888183,14.479156644558106,12.713916322888183Q14.421575904558106,12.675157022888184,14.372607514558105,12.625825922888183Q14.323639124558106,12.576494722888183,14.285164904558105,12.518487422888184Q14.246690683558105,12.460480122888184,14.220189180558105,12.396025832888183Q14.193687679558105,12.331571702888183,14.180177331558106,12.263147472888184Q14.166666984558105,12.194723252888183,14.166666984558105,12.124958512888183Q14.166666984558105,12.055193782888184,14.180177331558106,11.986769492888184Q14.193687679558105,11.918345212888184,14.220189180558105,11.853890952888184Q14.246690683558105,11.789436752888184,14.285164904558105,11.731429482888183Q14.323639124558106,11.673422212888184,14.372607514558105,11.624091092888184Q14.421575904558106,11.574759962888184,14.479156614558105,11.536000732888184Q14.536737354558106,11.497241511888184,14.600717634558105,11.470543693888184Q14.664697944558105,11.443845877888183,14.732619044558106,11.430235449888183Q14.800540204558105,11.416625022888184,14.869791984558105,11.416625022888184Q14.939043704558106,11.416625022888184,15.006964804558105,11.430235449888183Q15.074885844558105,11.443845877888183,15.138866124558106,11.470543693888184Q15.202846384558105,11.497241511888184,15.260427284558105,11.536000732888184Q15.318007984558106,11.574759962888184,15.366976384558106,11.624091092888184Q15.415944684558106,11.673422212888184,15.454418884558105,11.731429482888183Q15.492893084558105,11.789436752888184,15.519394684558105,11.853890952888184Q15.545896184558105,11.918345212888184,15.559406484558105,11.986769492888184Q15.572916984558105,12.055193782888184,15.572916984558105,12.124958512888183Z" fill="#4150FF" fill-opacity="1"/></g><g><path d="M12.760416984558105,12.124958512888183Q12.760416984558105,12.194723252888183,12.746906684558105,12.263147472888184Q12.733396184558105,12.331571702888183,12.706894684558105,12.396025892888183Q12.680392984558106,12.460480222888183,12.641918884558105,12.518487422888184Q12.603444584558105,12.576494722888183,12.554476284558106,12.625825922888183Q12.505507784558105,12.675157022888184,12.447927084558106,12.713916222888184Q12.390346284558106,12.752675322888184,12.326366124558106,12.779373122888183Q12.262385844558105,12.806071022888183,12.194464804558105,12.819681422888184Q12.126543704558106,12.833292022888184,12.057291984558105,12.833292022888184Q11.988040204558105,12.833292022888184,11.920119044558106,12.819681522888184Q11.852197944558105,12.806071022888183,11.788217634558105,12.779373322888183Q11.724237354558106,12.752675422888183,11.666656644558106,12.713916322888183Q11.609075904558106,12.675157022888184,11.560107514558105,12.625825922888183Q11.511139124558106,12.576494722888183,11.472664904558105,12.518487422888184Q11.434190683558105,12.460480122888184,11.407689180558105,12.396025832888183Q11.381187679558105,12.331571702888183,11.367677331558106,12.263147472888184Q11.354166984558105,12.194723252888183,11.354166984558105,12.124958512888183Q11.354166984558105,12.055193782888184,11.367677331558106,11.986769492888184Q11.381187679558105,11.918345212888184,11.407689180558105,11.853890952888184Q11.434190683558105,11.789436752888184,11.472664904558105,11.731429482888183Q11.511139124558106,11.673422212888184,11.560107514558105,11.624091092888184Q11.609075904558106,11.574759962888184,11.666656614558105,11.536000732888184Q11.724237354558106,11.497241511888184,11.788217634558105,11.470543693888184Q11.852197944558105,11.443845877888183,11.920119044558106,11.430235449888183Q11.988040204558105,11.416625022888184,12.057291984558105,11.416625022888184Q12.126543704558106,11.416625022888184,12.194464804558105,11.430235449888183Q12.262385844558105,11.443845877888183,12.326366124558106,11.470543693888184Q12.390346384558105,11.497241511888184,12.447927284558105,11.536000732888184Q12.505507984558106,11.574759962888184,12.554476384558106,11.624091092888184Q12.603444684558106,11.673422212888184,12.641918884558105,11.731429482888183Q12.680393084558105,11.789436752888184,12.706894684558105,11.853890952888184Q12.733396184558105,11.918345212888184,12.746906484558105,11.986769492888184Q12.760416984558105,12.055193782888184,12.760416984558105,12.124958512888183Z" fill="#4150FF" fill-opacity="1"/></g></g></svg>