<svg xmlns="http://www.w3.org/2000/svg" xmlns:xlink="http://www.w3.org/1999/xlink" fill="none" version="1.1" width="32" height="32" viewBox="0 0 32 32"><defs><clipPath id="master_svg0_707_038133"><rect x="0" y="0" width="32" height="32" rx="0"/></clipPath></defs><g clip-path="url(#master_svg0_707_038133)"><g><path d="M4,24.333333984558106L9.3333335,24.333333984558106L9.3333335,22.333333984558106L5,22.333333984558106L5,9.666666984558105L9.3333335,9.666666984558105L9.3333335,7.6666669845581055L4,7.6666669845581055Q3.9015086,7.666667044558105,3.80490969,7.685881794558106Q3.70831078,7.705096544558105,3.6173166,7.742787604558106Q3.52632242,7.780478594558105,3.44442987,7.835197444558106Q3.36253726,7.889916364558106,3.29289329,7.959560274558106Q3.22324938,8.029204244558105,3.16853052,8.111096794558106Q3.11381161,8.192989404558105,3.07612056,8.283983584558106Q3.0384295,8.374977764558105,3.0192148100000002,8.471576674558106Q3.00000006,8.568175584558105,3,8.666666984558105L3,23.333333984558106Q3.00000006,23.431824984558105,3.0192148100000002,23.528422984558105Q3.03842956,23.625021984558103,3.07612062,23.716015984558105Q3.11381161,23.807009984558107,3.16853046,23.888902984558108Q3.22324938,23.970795984558105,3.29289329,24.040439984558105Q3.36253726,24.110082984558105,3.44442981,24.164801984558103Q3.52632242,24.219520984558105,3.6173166,24.257212984558105Q3.70831078,24.294903984558104,3.80490969,24.314117984558106Q3.9015086,24.333332984558105,4,24.333333984558106Z" fill-rule="evenodd" fill="#1D2129" fill-opacity="1"/></g><g><path d="M9.333333969116211,19.33333396911621L27.99999996911621,19.33333396911621L27.99999996911621,27.333335869116212L9.333333969116211,27.333335869116212L9.333333969116211,23.33333396911621L9.333333969116211,19.33333396911621Z" fill="#FF7D00" fill-opacity="1"/></g><g><path d="M9.333333969116211,4.6666669845581055L27.99999996911621,4.6666669845581055L27.99999996911621,12.666666984558105L9.333333969116211,12.666666984558105L9.333333969116211,8.666666784558105L9.333333969116211,4.6666669845581055Z" fill="#4150FF" fill-opacity="1"/></g></g></svg>