<svg xmlns="http://www.w3.org/2000/svg" xmlns:xlink="http://www.w3.org/1999/xlink" fill="none" version="1.1" width="24.5" height="24.5" viewBox="0 0 24.5 24.5"><g><path d="M18.5,0C15.186292,0,12.5,2.6862917,12.5,6C12.5,9.3137083,15.186292,12,18.5,12C21.813709,12,24.5,9.3137083,24.5,6C24.5,2.6862917,21.813709,0,18.5,0ZM14.5,6C14.5,3.7908614,16.290861,2,18.5,2C20.709139,2,22.5,3.7908614,22.5,6C22.5,8.2091389,20.709139,10,18.5,10C16.290861,10,14.5,8.2091389,14.5,6ZM0,2.5C0,1.3954306,0.89543056,0.5,2,0.5C2,0.5,9,0.5,9,0.5C10.104569,0.5,11,1.3954306,11,2.5C11,2.5,11,9.5,11,9.5C11,10.604569,10.104569,11.5,9,11.5C9,11.5,2,11.5,2,11.5C0.89543056,11.5,0,10.604569,0,9.5C0,9.5,0,2.5,0,2.5ZM2,2.5C2,2.5,2,9.5,2,9.5C2,9.5,9,9.5,9,9.5C9,9.5,9,2.5,9,2.5C9,2.5,2,2.5,2,2.5ZM0,15.5C0,14.395431,0.89543056,13.5,2,13.5C2,13.5,9,13.5,9,13.5C10.104569,13.5,11,14.395431,11,15.5C11,15.5,11,22.5,11,22.5C11,23.604568,10.104569,24.5,9,24.5C9,24.5,2,24.5,2,24.5C0.89543056,24.5,0,23.604568,0,22.5C0,22.5,0,15.5,0,15.5ZM2,15.5C2,15.5,2,22.5,2,22.5C2,22.5,9,22.5,9,22.5C9,22.5,9,15.5,9,15.5C9,15.5,2,15.5,2,15.5ZM13,15.5C13,14.395431,13.895431,13.5,15,13.5C15,13.5,22,13.5,22,13.5C23.104568,13.5,24,14.395431,24,15.5C24,15.5,24,22.5,24,22.5C24,23.604568,23.104568,24.5,22,24.5C22,24.5,15,24.5,15,24.5C13.895431,24.5,13,23.604568,13,22.5C13,22.5,13,15.5,13,15.5ZM15,22.5C15,22.5,22,22.5,22,22.5C22,22.5,22,15.5,22,15.5C22,15.5,15,15.5,15,15.5C15,15.5,15,22.5,15,22.5Z" fill="#FFFFFF" fill-opacity="1"/></g></svg>